<?xml version="1.0" encoding="UTF-8"?>
<svg xmlns="http://www.w3.org/2000/svg" viewBox="0 0 256 256" width="256" height="256">
  <defs>
    <radialGradient id="bg" cx="0.5" cy="0.45" r="0.75">
      <stop offset="0%" stop-color="#3b2a5e"/>
      <stop offset="55%" stop-color="#1a1030"/>
      <stop offset="100%" stop-color="#08040f"/>
    </radialGradient>
    <linearGradient id="parchment" x1="0" y1="0" x2="0" y2="1">
      <stop offset="0%" stop-color="#fbeac1"/>
      <stop offset="55%" stop-color="#e3c890"/>
      <stop offset="100%" stop-color="#a17a3d"/>
    </linearGradient>
    <linearGradient id="gold" x1="0" y1="0" x2="0" y2="1">
      <stop offset="0%" stop-color="#fff2a0"/>
      <stop offset="45%" stop-color="#e6c151"/>
      <stop offset="100%" stop-color="#7c5414"/>
    </linearGradient>
    <linearGradient id="wax" x1="0" y1="0" x2="0" y2="1">
      <stop offset="0%" stop-color="#d23b3b"/>
      <stop offset="100%" stop-color="#5a0d0d"/>
    </linearGradient>
    <radialGradient id="glow" cx="0.5" cy="0.5" r="0.5">
      <stop offset="0%" stop-color="#b58bff" stop-opacity="0.55"/>
      <stop offset="100%" stop-color="#b58bff" stop-opacity="0"/>
    </radialGradient>
    <radialGradient id="rune" cx="0.5" cy="0.5" r="0.5">
      <stop offset="0%" stop-color="#d8b5ff" stop-opacity="0.9"/>
      <stop offset="100%" stop-color="#d8b5ff" stop-opacity="0"/>
    </radialGradient>
    <filter id="soft" x="-20%" y="-20%" width="140%" height="140%">
      <feGaussianBlur stdDeviation="1.2"/>
    </filter>
  </defs>

  <rect x="0" y="0" width="256" height="256" rx="38" fill="url(#bg)"/>

  <g opacity="0.45">
    <circle cx="48" cy="56" r="1.5" fill="#fff"/>
    <circle cx="220" cy="44" r="1.2" fill="#fff"/>
    <circle cx="200" cy="100" r="0.9" fill="#fff"/>
    <circle cx="40" cy="180" r="1.1" fill="#fff"/>
    <circle cx="232" cy="200" r="1.4" fill="#fff"/>
    <circle cx="80" cy="220" r="0.8" fill="#fff"/>
  </g>

  <circle cx="128" cy="130" r="92" fill="url(#glow)"/>

  <g transform="translate(8 8)">
    <rect x="0" y="0" width="240" height="240" rx="32" fill="none" stroke="url(#gold)" stroke-width="3"/>
    <path d="M0 18 Q 12 0 32 0 M240 18 Q 228 0 208 0 M0 222 Q 12 240 32 240 M240 222 Q 228 240 208 240" stroke="url(#gold)" stroke-width="2" fill="none" opacity="0.85"/>
    <circle cx="12" cy="12" r="3" fill="url(#gold)"/>
    <circle cx="228" cy="12" r="3" fill="url(#gold)"/>
    <circle cx="12" cy="228" r="3" fill="url(#gold)"/>
    <circle cx="228" cy="228" r="3" fill="url(#gold)"/>
  </g>

  <g transform="translate(42 44)">
    <path d="M0 12 Q 86 -4 172 12 L 168 154 Q 86 138 4 154 Z" fill="#0d0a05" opacity="0.55" transform="translate(6 8)"/>

    <path d="M0 12 Q 86 -4 172 12 L 168 154 Q 86 138 4 154 Z" fill="url(#parchment)"/>
    <path d="M0 12 Q 86 -4 172 12" stroke="#7a5320" stroke-width="2" fill="none" opacity="0.9"/>
    <path d="M4 154 Q 86 138 168 154" stroke="#7a5320" stroke-width="2" fill="none" opacity="0.9"/>

    <path d="M0 12 C -8 10 -10 4 -4 -2 C 2 0 4 6 4 12" fill="#c79e57"/>
    <path d="M172 12 C 180 10 182 4 176 -2 C 170 0 168 6 168 12" fill="#c79e57"/>

    <g stroke="#7a5320" stroke-width="1.6" opacity="0.55" stroke-linecap="round">
      <line x1="22" y1="52" x2="150" y2="50"/>
      <line x1="22" y1="74" x2="150" y2="72"/>
      <line x1="22" y1="96" x2="138" y2="94"/>
      <line x1="22" y1="118" x2="120" y2="116"/>
    </g>

    <g transform="translate(86 44)" opacity="0.9">
      <circle cx="0" cy="0" r="22" fill="url(#rune)"/>
      <path d="M-10 -12 L 0 -16 L 10 -12 L 12 0 L 8 12 L -8 12 L -12 0 Z" fill="none" stroke="#3a1d05" stroke-width="2.5" stroke-linejoin="round"/>
      <path d="M-6 -6 L 6 6 M-6 6 L 6 -6 M0 -10 L 0 10" stroke="#3a1d05" stroke-width="2" stroke-linecap="round"/>
    </g>
  </g>

  <g transform="translate(96 134) rotate(28)">
    <path d="M0 0 L 90 -80 C 100 -84 110 -74 106 -64 L 22 18 Z" fill="#f4f1e7" opacity="0.95"/>
    <path d="M0 0 L 90 -80 C 100 -84 110 -74 106 -64 L 22 18 Z" fill="none" stroke="#7a6a40" stroke-width="1.2" opacity="0.7"/>
    <g stroke="#7a6a40" stroke-width="0.8" opacity="0.55">
      <line x1="14" y1="-4" x2="92" y2="-72"/>
      <line x1="10" y1="-12" x2="82" y2="-74"/>
      <line x1="22" y1="8" x2="100" y2="-66"/>
    </g>
    <rect x="-4" y="-2" width="14" height="10" rx="2" fill="#3a2410"/>
    <circle cx="3" cy="3" r="1.2" fill="#ffd96a"/>
  </g>

  <g transform="translate(178 168)">
    <ellipse cx="2" cy="2" rx="22" ry="6" fill="#0d0a05" opacity="0.55"/>
    <circle cx="0" cy="0" r="22" fill="url(#wax)"/>
    <circle cx="0" cy="0" r="22" fill="none" stroke="#3a0a0a" stroke-width="1.5"/>
    <path d="M-18 4 Q -22 -8 -14 -16 M18 4 Q 22 -8 14 -16 M0 22 Q 8 24 14 18 M0 22 Q -8 24 -14 18" stroke="#5a0d0d" stroke-width="2" fill="none" opacity="0.7"/>
    <text x="0" y="8" font-family="Georgia, serif" font-size="26" font-weight="bold" text-anchor="middle" fill="#fbeac1" filter="url(#soft)">N</text>
    <text x="0" y="7" font-family="Georgia, serif" font-size="26" font-weight="bold" text-anchor="middle" fill="#fff2a0">N</text>
  </g>
</svg>
