<?xml version="1.0" encoding="UTF-8"?>
<svg xmlns="http://www.w3.org/2000/svg" viewBox="0 0 256 256" width="256" height="256">
  <defs>
    <linearGradient id="bg" x1="0" y1="0" x2="0" y2="1">
      <stop offset="0%" stop-color="#2b1a0a"/>
      <stop offset="100%" stop-color="#120802"/>
    </linearGradient>
    <linearGradient id="parchment" x1="0" y1="0" x2="0" y2="1">
      <stop offset="0%" stop-color="#f6e1b5"/>
      <stop offset="100%" stop-color="#d6b87a"/>
    </linearGradient>
    <linearGradient id="gold" x1="0" y1="0" x2="0" y2="1">
      <stop offset="0%" stop-color="#ffe478"/>
      <stop offset="100%" stop-color="#b8862a"/>
    </linearGradient>
  </defs>

  <rect x="0" y="0" width="256" height="256" rx="36" fill="url(#bg)"/>
  <rect x="6" y="6" width="244" height="244" rx="32" fill="none" stroke="url(#gold)" stroke-width="3" opacity="0.85"/>

  <g transform="translate(48 36)">
    <rect x="0" y="0" width="160" height="184" rx="10" fill="#0d0d0d" opacity="0.35" transform="translate(6 8)"/>
    <rect x="0" y="0" width="160" height="184" rx="10" fill="url(#parchment)"/>
    <rect x="0" y="0" width="160" height="184" rx="10" fill="none" stroke="#7a5a25" stroke-width="2"/>

    <line x1="18" y1="46" x2="142" y2="46" stroke="#7a5a25" stroke-width="2" opacity="0.55"/>
    <line x1="18" y1="74" x2="142" y2="74" stroke="#7a5a25" stroke-width="2" opacity="0.55"/>
    <line x1="18" y1="102" x2="142" y2="102" stroke="#7a5a25" stroke-width="2" opacity="0.55"/>
    <line x1="18" y1="130" x2="120" y2="130" stroke="#7a5a25" stroke-width="2" opacity="0.55"/>
    <line x1="18" y1="158" x2="100" y2="158" stroke="#7a5a25" stroke-width="2" opacity="0.55"/>

    <text x="80" y="38" font-family="Georgia, serif" font-size="44" font-weight="bold" text-anchor="middle" fill="#3a1d05">N</text>
  </g>

  <g transform="translate(176 168)">
    <circle cx="32" cy="32" r="32" fill="#0d0d0d" opacity="0.45"/>
    <circle cx="30" cy="30" r="30" fill="url(#gold)"/>
    <circle cx="30" cy="30" r="30" fill="none" stroke="#7a5a25" stroke-width="2"/>
    <path d="M30 14 C20 14 14 22 14 32 L14 40 L12 44 L48 44 L46 40 L46 32 C46 22 40 14 30 14 Z" fill="#3a1d05"/>
    <circle cx="30" cy="50" r="4" fill="#3a1d05"/>
  </g>
</svg>
